<svg id="svg" version="1.1" width="400" height="470.0221589110478" viewBox="0 0 400 470.0221589110478" xmlns="http://www.w3.org/2000/svg" xmlns:xlink="http://www.w3.org/1999/xlink" ><g id="svgg"><path id="path0" d="M228.051 0.279 C 226.079 0.419,223.220 0.550,221.697 0.571 C 220.175 0.592,218.879 0.639,218.818 0.676 C 218.757 0.712,217.605 0.801,216.259 0.873 C 214.912 0.944,213.672 1.042,213.504 1.091 C 213.335 1.139,212.366 1.265,211.349 1.371 C 210.332 1.477,208.795 1.653,207.933 1.761 C 207.071 1.870,206.014 1.999,205.583 2.049 C 203.883 2.246,200.858 2.684,198.041 3.141 C 195.348 3.578,194.186 3.761,193.732 3.817 C 192.694 3.945,187.693 4.891,184.917 5.484 C 183.893 5.703,182.439 6.010,181.685 6.165 C 179.724 6.571,171.774 8.636,169.148 9.423 C 161.207 11.802,152.361 14.953,145.048 18.009 C 142.905 18.904,143.042 18.844,140.578 19.971 C 139.625 20.407,138.814 20.764,138.778 20.764 C 138.664 20.764,135.614 22.208,132.223 23.868 C 119.419 30.134,107.810 37.219,95.299 46.404 C 93.898 47.432,92.708 48.321,92.654 48.379 C 92.600 48.437,92.204 48.744,91.773 49.062 C 81.368 56.730,66.513 70.579,57.188 81.306 C 54.689 84.181,52.755 86.468,51.888 87.575 C 51.430 88.160,51.000 88.683,50.932 88.737 C 50.696 88.925,46.105 94.929,44.342 97.356 C 40.955 102.019,34.280 111.982,34.280 112.376 C 34.280 112.431,34.114 112.710,33.911 112.996 C 33.463 113.628,30.720 118.283,29.680 120.176 C 29.266 120.930,28.659 122.032,28.332 122.625 C 26.834 125.334,25.709 127.501,24.009 130.950 C 22.266 134.486,20.764 137.659,20.764 137.803 C 20.764 137.839,20.463 138.516,20.095 139.307 C 18.610 142.501,15.326 150.567,14.206 153.771 C 10.925 163.161,9.475 167.719,8.100 172.968 C 7.311 175.977,6.468 179.304,6.387 179.726 C 6.346 179.941,6.168 180.690,5.993 181.391 C 5.818 182.091,5.629 182.884,5.573 183.154 C 5.517 183.423,5.396 183.996,5.303 184.427 C 4.601 187.687,4.185 189.781,3.938 191.283 C 3.832 191.929,3.610 193.252,3.446 194.221 C 2.832 197.838,2.398 200.746,2.230 202.351 C 2.084 203.754,2.042 204.123,1.862 205.575 C 1.795 206.118,1.699 206.915,1.650 207.346 C 1.600 207.777,1.505 208.482,1.439 208.913 C 1.372 209.344,1.299 210.005,1.276 210.382 C 1.238 211.009,1.068 213.063,0.871 215.279 C 0.828 215.764,0.746 216.910,0.689 217.826 C 0.445 221.750,0.340 223.040,0.235 223.408 C 0.007 224.203,-0.026 242.186,0.197 244.466 C 0.318 245.705,0.454 247.248,0.501 247.894 C 0.547 248.541,0.636 249.643,0.698 250.343 C 0.760 251.043,0.852 252.365,0.902 253.281 C 0.952 254.197,1.066 255.431,1.155 256.024 C 1.244 256.616,1.334 257.625,1.356 258.265 C 1.377 258.905,1.427 259.481,1.467 259.546 C 1.507 259.610,1.592 260.276,1.657 261.026 C 1.721 261.776,1.815 262.698,1.865 263.075 C 1.915 263.452,2.000 264.158,2.054 264.643 C 2.184 265.808,2.504 268.436,2.651 269.540 C 2.716 270.024,2.843 270.686,2.934 271.009 C 3.025 271.332,3.151 271.949,3.214 272.380 C 3.375 273.480,3.502 274.202,3.716 275.220 C 3.817 275.705,4.041 276.895,4.213 277.865 C 4.385 278.834,4.607 279.980,4.708 280.411 C 4.808 280.842,5.035 281.900,5.211 282.762 C 5.388 283.624,5.600 284.638,5.682 285.015 C 5.765 285.392,5.937 286.185,6.064 286.778 C 6.392 288.304,8.154 295.407,8.639 297.160 C 8.863 297.968,9.116 298.893,9.202 299.216 C 9.931 301.962,12.347 309.418,13.709 313.124 C 13.946 313.771,14.256 314.652,14.396 315.083 C 14.676 315.939,17.869 324.085,18.306 325.058 C 18.455 325.390,19.038 326.719,19.600 328.012 C 22.698 335.129,29.569 348.890,30.947 350.735 C 31.028 350.842,31.313 351.327,31.581 351.812 C 33.338 354.990,38.567 363.325,41.290 367.287 C 43.894 371.076,50.222 379.691,51.018 380.531 C 51.131 380.651,51.489 381.088,51.812 381.502 C 55.344 386.030,60.682 392.160,65.524 397.249 C 71.950 404.004,79.633 411.186,86.174 416.552 C 86.437 416.768,86.967 417.213,87.351 417.542 C 99.770 428.163,123.782 443.187,137.818 449.119 C 138.651 449.471,139.871 450.016,142.311 451.125 C 147.807 453.622,158.719 457.595,166.895 460.077 C 167.811 460.355,168.952 460.707,169.430 460.860 C 170.222 461.112,171.507 461.463,175.416 462.493 C 176.816 462.862,180.669 463.811,182.958 464.350 C 185.723 465.001,188.283 465.504,192.948 466.312 C 193.217 466.358,193.658 466.439,193.928 466.491 C 194.197 466.543,194.770 466.635,195.201 466.695 C 195.926 466.795,197.838 467.095,200.979 467.601 C 201.680 467.714,202.738 467.884,203.330 467.979 C 204.553 468.176,206.192 468.378,207.346 468.475 C 207.777 468.511,208.438 468.600,208.815 468.673 C 209.192 468.745,210.029 468.825,210.676 468.850 C 211.322 468.875,212.380 468.952,213.026 469.020 C 213.673 469.089,215.083 469.191,216.161 469.247 C 217.238 469.303,218.560 469.390,219.099 469.440 C 219.638 469.490,221.004 469.585,222.135 469.651 C 223.266 469.717,224.500 469.811,224.878 469.861 C 226.620 470.090,239.244 470.154,241.626 469.945 C 243.026 469.823,244.966 469.684,245.935 469.637 C 246.905 469.590,248.315 469.499,249.070 469.436 C 249.824 469.372,251.102 469.289,251.910 469.251 C 253.414 469.180,255.406 469.033,257.493 468.836 C 258.139 468.776,259.065 468.693,259.549 468.652 C 260.034 468.611,260.784 468.526,261.214 468.464 C 261.645 468.401,262.483 468.311,263.075 468.264 C 263.668 468.217,264.373 468.128,264.643 468.067 C 264.912 468.005,265.519 467.917,265.992 467.871 C 266.464 467.825,267.213 467.730,267.657 467.660 C 268.628 467.505,268.956 467.458,270.225 467.290 C 270.764 467.219,271.513 467.085,271.890 466.993 C 272.494 466.846,273.209 466.733,275.024 466.497 C 275.294 466.463,276.219 466.288,277.081 466.109 C 277.943 465.930,278.869 465.754,279.138 465.718 C 279.407 465.683,280.069 465.558,280.607 465.442 C 281.146 465.326,282.071 465.136,282.664 465.020 C 283.640 464.830,284.919 464.530,291.479 462.952 C 292.610 462.680,295.078 462.015,296.964 461.476 C 298.849 460.936,300.568 460.448,300.784 460.393 C 300.999 460.337,302.674 459.808,304.505 459.217 C 306.337 458.625,307.968 458.114,308.129 458.081 C 308.291 458.049,309.040 457.801,309.794 457.531 C 316.036 455.299,318.311 454.463,319.197 454.078 C 319.412 453.984,320.118 453.709,320.764 453.467 C 321.410 453.226,322.204 452.913,322.527 452.773 C 322.850 452.632,324.393 451.975,325.955 451.311 C 333.231 448.219,340.085 444.913,345.739 441.770 C 346.224 441.500,347.182 440.975,347.869 440.603 C 348.555 440.231,349.774 439.538,350.578 439.062 C 351.382 438.587,352.082 438.198,352.133 438.198 C 352.184 438.198,352.744 437.845,353.379 437.414 C 354.014 436.983,354.577 436.631,354.630 436.631 C 354.869 436.631,363.888 430.699,367.287 428.306 C 367.987 427.813,368.781 427.259,369.050 427.075 C 369.319 426.891,370.119 426.300,370.827 425.760 C 371.536 425.221,372.409 424.559,372.767 424.290 C 374.642 422.882,382.838 416.172,383.654 415.377 C 383.875 415.162,384.439 414.677,384.907 414.300 C 385.375 413.923,385.988 413.391,386.268 413.119 C 386.548 412.847,387.349 412.142,388.048 411.552 C 391.215 408.878,390.972 409.104,395.498 404.599 L 399.517 400.599 396.953 398.096 C 395.543 396.719,393.744 395.020,392.956 394.319 C 392.167 393.619,391.425 392.957,391.305 392.849 C 391.185 392.740,390.779 392.398,390.402 392.088 C 390.024 391.778,389.016 390.897,388.160 390.130 C 382.956 385.469,374.736 378.906,369.833 375.498 C 363.851 371.339,363.370 371.021,357.725 367.498 C 355.505 366.112,348.867 362.194,348.739 362.194 C 348.685 362.194,348.406 362.030,348.120 361.830 C 347.834 361.630,346.807 361.044,345.837 360.529 C 344.868 360.014,343.501 359.282,342.801 358.903 C 342.101 358.523,340.206 357.556,338.590 356.752 C 335.870 355.400,334.949 354.961,332.027 353.625 C 331.435 353.354,330.289 352.828,329.481 352.457 C 328.673 352.086,327.747 351.663,327.424 351.517 C 326.858 351.261,321.898 349.273,318.189 347.814 C 315.163 346.624,310.670 345.030,309.856 344.857 C 309.674 344.819,309.366 344.702,309.170 344.597 C 308.975 344.493,308.727 344.402,308.619 344.395 C 308.511 344.389,308.071 344.261,307.640 344.111 C 306.463 343.701,301.068 342.023,300.628 341.931 C 300.498 341.903,300.260 341.832,300.098 341.771 C 299.936 341.711,299.407 341.562,298.923 341.440 C 298.438 341.318,296.322 340.775,294.221 340.234 C 292.120 339.693,290.049 339.175,289.618 339.083 C 288.730 338.894,288.117 338.756,287.267 338.555 C 286.011 338.258,284.622 337.970,282.174 337.502 C 281.528 337.378,280.470 337.159,279.824 337.014 C 279.177 336.870,278.384 336.711,278.061 336.660 C 276.228 336.376,274.819 336.126,274.594 336.045 C 274.316 335.944,271.425 335.403,270.323 335.245 C 269.946 335.191,269.241 335.067,268.756 334.969 C 268.271 334.872,267.448 334.737,266.926 334.668 C 266.405 334.600,265.823 334.515,265.634 334.478 C 265.169 334.389,263.312 334.142,262.586 334.074 C 262.262 334.043,261.690 333.971,261.312 333.912 C 260.935 333.854,260.186 333.760,259.647 333.704 C 259.109 333.649,258.448 333.565,258.178 333.518 C 257.909 333.471,257.078 333.379,256.331 333.313 C 255.584 333.247,254.791 333.154,254.568 333.106 C 253.714 332.924,246.643 332.461,242.598 332.322 C 241.525 332.286,239.412 332.202,237.904 332.137 C 236.396 332.072,234.104 331.978,232.811 331.929 C 231.518 331.879,229.843 331.797,229.089 331.746 C 228.335 331.694,226.887 331.600,225.871 331.536 C 224.855 331.472,223.968 331.385,223.900 331.343 C 223.831 331.300,223.164 331.222,222.416 331.169 C 220.829 331.056,219.366 330.854,217.909 330.549 C 217.793 330.525,217.176 330.445,216.538 330.371 C 215.899 330.297,214.760 330.104,214.006 329.942 C 212.438 329.606,212.080 329.532,211.263 329.373 C 210.175 329.162,207.356 328.473,205.975 328.081 C 203.940 327.505,199.540 326.120,199.314 325.985 C 199.207 325.921,199.030 325.854,198.923 325.837 C 197.176 325.559,186.316 320.350,183.628 318.500 C 183.167 318.183,182.729 317.924,182.656 317.924 C 182.583 317.924,181.955 317.527,181.262 317.042 C 180.568 316.557,179.917 316.161,179.814 316.161 C 179.712 316.161,179.628 316.078,179.628 315.978 C 179.628 315.877,179.467 315.744,179.271 315.682 C 179.074 315.620,178.741 315.408,178.531 315.212 C 178.321 315.016,177.886 314.687,177.566 314.480 C 177.246 314.273,176.851 313.998,176.690 313.868 C 176.528 313.738,175.823 313.181,175.122 312.630 C 163.258 303.293,153.501 290.359,146.458 274.633 C 144.005 269.157,140.678 258.514,139.875 253.575 C 139.769 252.929,139.590 251.871,139.475 251.224 C 139.237 249.883,138.906 247.527,138.772 246.229 C 138.722 245.744,138.634 245.059,138.577 244.706 C 138.519 244.354,138.435 243.605,138.389 243.041 C 138.343 242.478,138.250 241.401,138.183 240.646 C 138.034 238.969,137.918 228.955,138.045 228.736 C 138.095 228.649,138.171 227.856,138.214 226.973 C 138.298 225.242,138.462 223.450,138.594 222.821 C 138.640 222.605,138.723 221.958,138.780 221.382 C 138.837 220.806,138.924 220.269,138.975 220.187 C 139.025 220.106,139.107 219.651,139.157 219.177 C 139.395 216.902,140.483 211.927,141.444 208.717 C 141.828 207.432,142.129 206.364,142.297 205.681 C 143.977 198.884,150.794 185.598,156.520 177.963 C 172.149 157.122,193.950 144.158,220.617 139.849 C 223.652 139.359,224.263 139.268,225.171 139.175 C 225.710 139.120,226.548 139.022,227.032 138.958 C 227.517 138.893,228.972 138.808,230.264 138.769 C 233.880 138.659,237.565 138.500,239.079 138.388 C 239.833 138.333,241.464 138.246,242.703 138.196 C 243.942 138.147,245.397 138.058,245.935 138.000 C 246.474 137.942,247.929 137.853,249.167 137.801 C 250.406 137.749,251.729 137.664,252.106 137.612 C 252.483 137.561,253.408 137.471,254.163 137.414 C 254.917 137.357,256.063 137.255,256.709 137.189 C 257.356 137.122,258.244 137.046,258.684 137.019 C 259.124 136.992,259.917 136.913,260.447 136.842 C 260.977 136.771,261.807 136.679,262.292 136.636 C 262.777 136.594,264.011 136.453,265.034 136.322 C 266.058 136.192,267.170 136.064,267.505 136.037 C 267.841 136.010,268.370 135.935,268.681 135.870 C 268.992 135.805,269.598 135.704,270.029 135.646 C 270.460 135.588,271.210 135.461,271.694 135.362 C 272.179 135.264,273.017 135.119,273.555 135.041 C 274.094 134.962,274.579 134.886,274.633 134.873 C 274.751 134.844,276.571 134.532,276.983 134.471 C 277.554 134.385,281.184 133.699,282.065 133.510 C 286.304 132.598,287.864 132.241,291.185 131.424 C 294.609 130.581,296.246 130.152,298.629 129.474 C 298.952 129.382,299.525 129.220,299.902 129.114 C 304.309 127.870,309.940 126.067,313.320 124.816 C 314.182 124.497,315.416 124.044,316.063 123.808 C 316.709 123.573,317.414 123.307,317.630 123.216 C 317.845 123.126,318.859 122.731,319.882 122.338 C 320.906 121.944,322.713 121.220,323.898 120.728 C 326.895 119.484,327.080 119.405,328.404 118.802 C 329.050 118.508,329.963 118.101,330.433 117.897 C 343.000 112.451,358.898 103.328,371.287 94.452 C 373.463 92.894,379.792 88.050,380.020 87.769 C 380.073 87.703,381.131 86.818,382.370 85.803 C 387.380 81.700,389.490 79.786,396.367 73.105 L 399.883 69.689 399.011 68.906 C 398.531 68.475,396.685 66.739,394.907 65.047 C 384.864 55.487,380.637 51.755,374.241 46.800 C 368.867 42.637,358.821 35.851,353.673 32.906 C 353.350 32.721,352.116 32.002,350.930 31.307 C 345.616 28.192,331.509 20.960,330.748 20.960 C 330.713 20.960,330.126 20.705,329.446 20.394 C 328.765 20.083,327.547 19.548,326.738 19.207 C 325.930 18.865,324.785 18.377,324.192 18.123 C 322.832 17.540,316.618 15.096,315.965 14.886 C 315.695 14.800,314.594 14.407,313.516 14.013 C 311.229 13.177,304.056 10.788,302.351 10.295 C 301.704 10.108,300.602 9.788,299.902 9.585 C 297.636 8.927,294.544 8.071,293.340 7.769 C 292.693 7.607,291.503 7.303,290.695 7.094 C 289.887 6.885,288.521 6.564,287.659 6.381 C 285.779 5.983,284.834 5.778,283.595 5.499 C 281.562 5.041,280.975 4.914,280.411 4.812 C 280.088 4.754,278.810 4.525,277.571 4.303 C 276.332 4.082,275.098 3.859,274.829 3.809 C 274.158 3.684,272.075 3.355,270.421 3.112 C 269.667 3.001,268.521 2.832,267.875 2.736 C 266.246 2.495,263.488 2.133,262.782 2.067 C 262.458 2.037,261.709 1.956,261.117 1.886 C 258.166 1.540,256.597 1.381,255.228 1.289 C 251.617 1.045,248.254 0.770,247.997 0.697 C 247.833 0.650,246.376 0.554,244.760 0.483 C 243.144 0.413,241.337 0.329,240.744 0.297 C 236.392 0.063,231.187 0.056,228.051 0.279 M246.327 26.715 C 247.189 26.764,248.555 26.857,249.363 26.920 C 253.238 27.225,254.017 27.284,254.667 27.326 C 255.052 27.350,255.889 27.436,256.527 27.517 C 257.166 27.598,258.041 27.686,258.472 27.713 C 258.903 27.740,259.608 27.817,260.039 27.883 C 260.470 27.950,261.219 28.052,261.704 28.112 C 262.189 28.171,262.840 28.271,263.151 28.333 C 263.462 28.395,263.990 28.470,264.326 28.498 C 265.050 28.560,267.210 28.885,268.854 29.179 C 269.500 29.295,270.338 29.435,270.715 29.490 C 271.092 29.545,271.621 29.640,271.890 29.701 C 272.438 29.826,272.661 29.867,274.339 30.155 C 274.985 30.266,276.308 30.525,277.277 30.731 C 282.638 31.871,285.773 32.639,292.556 34.476 C 295.110 35.167,302.293 37.434,302.510 37.617 C 302.659 37.744,301.154 39.131,299.412 40.470 C 296.781 42.494,290.760 45.823,287.071 47.294 C 284.079 48.487,280.212 49.824,278.061 50.409 C 277.414 50.585,276.401 50.865,275.808 51.032 C 274.850 51.302,272.044 51.961,270.715 52.228 C 267.087 52.958,266.149 53.139,265.230 53.286 C 264.638 53.381,263.580 53.555,262.880 53.672 C 261.556 53.895,261.275 53.940,259.647 54.189 C 259.109 54.272,258.624 54.350,258.570 54.363 C 258.516 54.376,257.767 54.457,256.905 54.543 C 256.043 54.630,255.162 54.735,254.946 54.776 C 254.731 54.818,253.673 54.897,252.595 54.951 C 251.518 55.005,250.449 55.092,250.220 55.143 C 249.991 55.194,248.360 55.283,246.596 55.342 C 244.832 55.400,242.507 55.524,241.430 55.616 C 239.376 55.791,233.789 55.758,230.950 55.554 C 230.034 55.488,228.139 55.392,226.738 55.339 C 225.338 55.287,223.839 55.201,223.408 55.149 C 222.977 55.097,221.699 55.002,220.568 54.938 C 219.437 54.874,218.247 54.790,217.924 54.753 C 217.600 54.715,216.631 54.623,215.769 54.549 C 214.907 54.474,213.981 54.393,213.712 54.367 C 213.120 54.310,210.519 53.996,210.382 53.965 C 210.328 53.953,209.799 53.875,209.207 53.792 C 206.524 53.414,201.178 52.419,199.604 52.004 C 199.009 51.847,198.128 51.641,197.645 51.546 C 188.487 49.741,176.362 44.884,168.952 40.052 C 165.920 38.076,165.835 37.957,167.137 37.527 C 168.928 36.937,171.853 36.030,172.870 35.751 C 173.408 35.603,174.627 35.251,175.578 34.970 C 177.214 34.485,181.074 33.455,182.566 33.105 C 182.943 33.016,183.781 32.809,184.427 32.644 C 186.016 32.239,187.832 31.821,189.716 31.427 C 190.578 31.246,191.636 31.021,192.067 30.925 C 193.902 30.519,196.193 30.087,199.216 29.578 C 203.709 28.822,204.955 28.626,206.758 28.393 C 207.620 28.281,208.546 28.156,208.815 28.116 C 209.489 28.015,211.765 27.754,212.243 27.722 C 212.458 27.708,213.193 27.626,213.875 27.539 C 215.327 27.355,215.855 27.311,218.609 27.141 C 219.740 27.071,221.371 26.942,222.233 26.855 C 223.095 26.767,224.944 26.678,226.342 26.656 C 227.740 26.635,228.928 26.573,228.982 26.520 C 229.092 26.409,243.913 26.576,246.327 26.715 M337.031 53.480 C 337.510 53.686,338.542 54.266,339.323 54.770 C 342.834 57.031,346.300 59.293,350.789 62.253 C 353.452 64.009,356.672 66.122,357.944 66.949 L 360.257 68.451 359.413 69.243 C 356.743 71.751,353.656 74.388,351.714 75.820 C 351.068 76.297,350.495 76.741,350.441 76.806 C 350.387 76.871,350.028 77.136,349.642 77.394 C 345.290 80.317,343.538 81.420,342.618 81.816 C 342.019 82.074,341.352 82.362,341.136 82.455 C 335.190 85.027,327.622 83.556,317.840 77.925 C 313.748 75.570,304.163 69.194,304.264 68.894 C 304.299 68.787,305.250 68.174,306.376 67.533 C 309.182 65.935,313.117 63.722,314.300 63.076 C 314.838 62.782,315.588 62.368,315.965 62.157 C 316.668 61.764,319.800 60.025,321.548 59.057 C 322.758 58.387,323.859 57.774,325.759 56.711 C 326.567 56.259,327.845 55.555,328.599 55.147 C 329.354 54.739,330.328 54.199,330.764 53.946 C 332.587 52.889,335.198 52.695,337.031 53.480 M136.352 55.885 C 137.214 56.047,139.109 56.518,141.234 57.097 C 143.930 57.832,150.823 60.936,154.763 63.189 C 155.456 63.585,156.508 64.175,157.101 64.500 C 161.433 66.872,165.839 69.736,165.157 69.736 C 165.063 69.736,164.178 70.220,163.191 70.813 C 162.203 71.405,161.346 71.890,161.286 71.890 C 161.226 71.890,160.943 72.053,160.657 72.252 C 160.371 72.450,159.564 72.925,158.864 73.307 C 158.164 73.688,156.621 74.548,155.436 75.217 C 154.251 75.887,152.796 76.702,152.204 77.029 C 151.611 77.355,151.038 77.688,150.930 77.767 C 150.823 77.846,149.941 78.333,148.972 78.849 C 148.002 79.365,146.975 79.950,146.689 80.148 C 146.403 80.347,146.129 80.509,146.080 80.509 C 146.031 80.509,144.634 81.269,142.976 82.196 C 134.500 86.939,134.692 86.968,122.723 79.199 C 107.939 69.604,109.575 70.948,110.809 69.416 C 119.842 58.200,127.392 54.201,136.352 55.885 M248.188 83.132 C 248.996 83.202,249.922 83.309,250.245 83.370 C 250.568 83.430,251.273 83.519,251.812 83.567 C 252.351 83.615,253.805 83.779,255.044 83.932 C 256.283 84.086,257.738 84.262,258.276 84.323 C 258.815 84.384,259.476 84.478,259.745 84.531 C 260.015 84.584,260.588 84.661,261.019 84.702 C 263.420 84.933,271.234 86.470,274.045 87.264 C 274.638 87.432,275.431 87.655,275.808 87.760 C 286.534 90.756,296.653 95.336,301.273 99.286 L 301.959 99.872 300.979 100.302 C 300.441 100.538,299.427 100.995,298.727 101.317 C 294.810 103.120,289.345 105.107,285.128 106.261 C 283.342 106.750,279.610 107.644,276.494 108.329 C 275.621 108.521,272.754 109.039,271.694 109.196 C 271.317 109.252,270.480 109.390,269.833 109.502 C 268.473 109.737,266.110 110.068,264.838 110.201 C 264.354 110.252,263.384 110.374,262.684 110.473 C 261.501 110.641,259.204 110.865,257.591 110.970 C 257.214 110.995,256.464 111.075,255.926 111.148 C 254.936 111.282,253.570 111.403,251.420 111.546 C 250.774 111.589,249.363 111.697,248.286 111.787 C 245.008 112.058,224.270 111.983,220.176 111.685 C 215.530 111.346,215.369 111.333,213.670 111.155 C 212.885 111.072,211.978 110.990,211.655 110.973 C 211.332 110.956,210.583 110.877,209.990 110.797 C 209.398 110.718,208.560 110.611,208.129 110.560 C 207.698 110.509,207.106 110.420,206.813 110.362 C 206.520 110.303,205.947 110.224,205.540 110.186 C 205.133 110.148,204.050 110.016,203.134 109.894 C 200.460 109.536,199.038 109.354,197.160 109.127 C 195.474 108.924,195.027 108.854,193.928 108.619 C 193.658 108.561,193.217 108.469,192.948 108.414 C 191.301 108.074,190.479 107.887,188.639 107.435 C 187.507 107.157,186.317 106.852,185.994 106.757 C 185.671 106.662,185.098 106.498,184.721 106.394 C 179.752 105.011,173.906 102.895,170.259 101.159 L 167.649 99.916 168.301 99.364 C 175.116 93.590,188.616 88.005,201.126 85.785 C 201.692 85.684,202.662 85.510,203.281 85.397 C 204.616 85.153,206.023 84.926,208.031 84.631 C 208.839 84.512,209.721 84.377,209.990 84.330 C 211.513 84.065,217.372 83.441,219.197 83.350 C 220.005 83.309,221.812 83.219,223.212 83.150 C 224.612 83.081,225.789 82.993,225.827 82.955 C 225.948 82.834,246.654 82.998,248.188 83.132 M91.037 88.919 C 91.886 89.148,93.741 90.317,94.711 91.235 C 95.492 91.975,99.084 94.856,100.752 96.082 C 101.486 96.621,102.321 97.247,102.610 97.472 C 103.057 97.823,106.798 100.442,110.930 103.298 C 112.401 104.315,112.389 104.149,111.106 105.589 C 110.492 106.278,108.051 109.012,105.681 111.664 C 99.386 118.708,99.189 118.934,96.647 122.046 C 91.920 127.831,86.671 135.160,83.396 140.548 C 82.807 141.518,81.740 143.270,81.025 144.442 C 80.311 145.614,79.726 146.595,79.726 146.621 C 79.726 146.647,79.230 147.539,78.624 148.604 C 77.321 150.892,73.046 159.271,72.040 161.508 C 71.652 162.370,71.009 163.825,70.610 164.740 C 70.211 165.656,69.730 166.758,69.540 167.189 C 67.847 171.033,65.153 178.615,63.659 183.741 C 63.423 184.549,63.162 185.431,63.078 185.700 C 62.798 186.596,62.498 187.742,62.180 189.128 C 62.007 189.882,61.788 190.764,61.693 191.087 C 61.541 191.608,61.042 193.699,60.527 195.984 C 60.429 196.415,60.205 197.517,60.029 198.433 C 59.853 199.349,59.673 200.274,59.628 200.490 C 59.279 202.188,58.401 207.378,58.286 208.423 C 58.256 208.692,58.175 209.265,58.106 209.696 C 58.037 210.127,57.935 210.921,57.879 211.459 C 57.823 211.998,57.733 212.662,57.678 212.935 C 57.623 213.208,57.541 213.958,57.495 214.600 C 57.450 215.243,57.367 216.077,57.312 216.454 C 57.256 216.832,57.161 217.889,57.101 218.805 C 57.040 219.721,56.952 220.735,56.905 221.058 C 56.858 221.381,56.767 222.747,56.704 224.094 C 56.640 225.441,56.543 226.939,56.488 227.424 C 56.329 228.836,56.304 242.247,56.457 244.074 C 56.534 244.990,56.641 246.577,56.694 247.600 C 56.794 249.509,57.037 252.114,57.431 255.486 C 57.554 256.537,57.599 257.452,57.531 257.519 C 57.464 257.587,57.488 257.792,57.586 257.974 C 57.684 258.157,57.810 258.859,57.866 259.535 C 57.922 260.210,58.010 260.909,58.062 261.087 C 58.158 261.419,58.253 262.045,58.469 263.761 C 58.537 264.300,58.669 265.137,58.762 265.622 C 58.856 266.107,59.027 267.032,59.142 267.679 C 59.318 268.662,59.595 270.094,60.052 272.380 C 60.095 272.595,60.181 273.036,60.242 273.359 C 60.648 275.493,62.706 283.649,63.338 285.629 C 63.488 286.099,63.939 287.542,64.341 288.834 C 68.290 301.549,75.620 317.497,82.132 327.542 C 82.509 328.123,83.416 329.569,84.147 330.754 C 84.879 331.939,85.532 332.953,85.598 333.007 C 85.665 333.061,86.154 333.766,86.684 334.574 C 91.310 341.618,98.319 350.140,107.546 359.941 C 110.523 363.102,113.075 365.932,113.003 365.992 C 112.962 366.026,112.223 366.551,111.361 367.159 C 106.015 370.931,100.987 374.568,95.863 378.369 C 89.707 382.937,88.614 383.295,85.912 381.623 C 84.823 380.949,84.801 380.927,82.880 378.635 C 81.925 377.497,80.230 375.505,79.113 374.208 C 77.996 372.912,76.464 371.120,75.710 370.227 C 74.956 369.333,74.246 368.505,74.133 368.385 C 73.780 368.014,69.272 362.489,68.756 361.796 C 68.487 361.434,68.043 360.869,67.771 360.540 C 64.913 357.089,57.496 346.023,54.306 340.451 C 50.506 333.814,50.027 332.920,47.220 327.228 C 45.187 323.105,43.351 319.057,41.535 314.691 C 41.445 314.476,41.239 313.991,41.076 313.614 C 40.913 313.237,40.500 312.179,40.158 311.263 C 39.817 310.348,39.315 309.025,39.044 308.325 C 38.470 306.843,36.127 299.824,35.349 297.258 C 35.055 296.288,34.687 295.098,34.531 294.613 C 34.376 294.128,33.940 292.542,33.562 291.087 C 33.185 289.633,32.705 287.782,32.496 286.974 C 31.947 284.859,30.491 277.993,30.086 275.612 C 30.022 275.235,29.937 274.750,29.897 274.535 C 29.857 274.319,29.766 273.738,29.695 273.243 C 29.623 272.749,29.527 272.132,29.482 271.872 C 29.355 271.146,28.933 267.935,28.892 267.385 C 28.871 267.116,28.757 266.278,28.638 265.524 C 28.518 264.770,28.324 263.359,28.207 262.390 C 28.089 261.420,27.909 260.034,27.805 259.308 C 27.702 258.583,27.634 257.922,27.655 257.839 C 27.676 257.756,27.623 257.130,27.537 256.448 C 27.373 255.139,27.354 254.916,27.145 251.812 C 27.072 250.735,26.969 249.236,26.916 248.482 C 26.630 244.445,26.483 227.222,26.702 223.506 C 26.826 221.415,27.205 216.417,27.319 215.377 C 27.568 213.109,27.643 212.335,27.720 211.263 C 27.767 210.617,27.851 209.691,27.907 209.207 C 27.964 208.722,28.055 207.884,28.110 207.346 C 28.165 206.807,28.260 206.127,28.321 205.834 C 28.382 205.541,28.462 204.968,28.500 204.561 C 28.537 204.153,28.659 203.203,28.771 202.449 C 29.092 200.285,29.388 198.370,29.467 197.943 C 29.506 197.728,29.599 197.199,29.672 196.768 C 29.879 195.556,30.547 192.156,30.750 191.283 C 31.343 188.741,31.531 187.900,31.608 187.452 C 32.202 183.995,35.519 172.463,37.745 166.112 C 39.309 161.651,41.427 156.227,42.985 152.693 C 43.128 152.370,43.381 151.797,43.547 151.420 C 47.946 141.453,53.568 131.053,59.430 122.037 C 61.217 119.288,61.895 118.288,64.341 114.789 C 65.322 113.386,68.978 108.452,69.130 108.325 C 69.195 108.271,69.609 107.742,70.050 107.150 C 70.705 106.271,72.569 103.981,74.596 101.565 C 74.778 101.349,75.367 100.644,75.906 99.998 C 76.445 99.353,76.930 98.781,76.985 98.727 C 77.040 98.673,78.133 97.395,79.414 95.886 C 84.995 89.317,87.326 87.920,91.037 88.919 M142.225 119.956 C 143.669 120.040,147.094 121.089,152.106 122.980 C 152.968 123.305,154.422 123.846,155.338 124.181 C 156.254 124.516,157.179 124.868,157.395 124.963 C 157.610 125.058,159.329 125.724,161.214 126.442 C 163.100 127.160,164.819 127.828,165.034 127.928 C 165.250 128.027,166.151 128.368,167.036 128.684 C 169.412 129.532,169.413 129.533,168.631 130.077 C 165.667 132.136,159.030 137.350,156.425 139.665 C 140.687 153.648,129.573 168.256,122.817 183.839 C 122.256 185.132,121.640 186.543,121.447 186.974 C 121.254 187.405,120.817 188.506,120.475 189.422 C 120.134 190.338,119.776 191.263,119.681 191.479 C 119.231 192.501,117.108 199.255,116.756 200.784 C 116.644 201.268,116.372 202.326,116.152 203.134 C 115.931 203.942,115.675 204.956,115.584 205.387 C 114.795 209.114,114.544 210.325,114.507 210.578 C 114.483 210.739,114.388 211.268,114.296 211.753 C 114.204 212.238,114.147 212.706,114.169 212.794 C 114.192 212.882,114.118 213.296,114.005 213.714 C 113.893 214.132,113.764 214.854,113.720 215.318 C 113.676 215.781,113.547 216.866,113.433 217.728 C 113.208 219.438,112.863 222.920,112.735 224.780 C 112.691 225.426,112.648 225.955,112.640 225.955 C 112.310 225.955,112.395 240.944,112.745 244.564 C 112.797 245.103,112.929 246.557,113.039 247.796 C 113.148 249.035,113.272 250.313,113.314 250.637 C 113.356 250.960,113.449 251.706,113.521 252.295 C 113.594 252.884,113.677 253.501,113.706 253.666 C 113.736 253.831,113.818 254.372,113.890 254.866 C 114.040 255.898,114.047 255.942,114.587 258.962 C 114.809 260.201,115.068 261.567,115.164 261.998 C 115.259 262.429,115.432 263.222,115.547 263.761 C 116.722 269.255,119.845 279.117,121.750 283.350 C 121.896 283.673,122.424 284.863,122.925 285.994 C 129.741 301.397,141.667 317.337,155.318 329.290 C 156.115 329.987,156.952 330.735,157.179 330.951 C 157.405 331.166,157.987 331.650,158.472 332.025 C 158.957 332.400,160.106 333.325,161.025 334.081 C 161.944 334.837,162.987 335.676,163.344 335.945 C 163.700 336.214,164.182 336.589,164.415 336.776 C 164.648 336.964,165.632 337.693,166.601 338.396 C 167.571 339.098,168.700 339.928,169.110 340.239 L 169.856 340.805 168.229 341.419 C 167.334 341.756,166.252 342.183,165.824 342.368 C 165.397 342.552,165.000 342.710,164.943 342.717 C 164.885 342.725,164.618 342.825,164.349 342.940 C 163.686 343.222,160.446 344.451,158.548 345.139 C 157.698 345.448,156.033 346.074,154.848 346.532 C 153.663 346.989,152.583 347.365,152.449 347.367 C 152.314 347.370,152.204 347.437,152.204 347.516 C 152.204 347.595,151.961 347.748,151.665 347.857 C 151.369 347.965,150.281 348.359,149.247 348.734 C 148.213 349.108,147.067 349.553,146.700 349.722 C 139.997 352.818,137.057 352.616,132.615 348.756 C 121.430 339.034,114.247 330.974,107.059 320.078 C 104.837 316.710,103.939 315.263,102.683 313.026 C 102.411 312.542,101.982 311.792,101.730 311.361 C 101.074 310.239,96.922 301.953,96.419 300.762 C 96.187 300.211,95.737 299.197,95.419 298.509 C 94.522 296.563,91.950 289.912,90.996 287.071 C 90.476 285.521,88.921 280.591,88.710 279.824 C 88.592 279.393,88.419 278.820,88.325 278.550 C 88.128 277.983,86.106 269.626,85.885 268.462 C 85.802 268.031,85.714 267.591,85.687 267.483 C 85.661 267.375,85.546 266.758,85.433 266.112 C 85.320 265.465,85.134 264.407,85.020 263.761 C 84.804 262.532,84.434 260.192,84.324 259.354 C 84.288 259.084,84.192 258.379,84.110 257.786 C 84.028 257.194,83.949 256.489,83.934 256.219 C 83.919 255.950,83.836 255.289,83.751 254.750 C 83.583 253.688,83.541 253.213,83.347 250.245 C 83.277 249.167,83.183 248.066,83.139 247.796 C 82.685 245.032,82.697 225.835,83.155 222.625 C 83.201 222.302,83.289 221.464,83.351 220.764 C 83.413 220.064,83.498 219.233,83.540 218.919 C 83.582 218.604,83.684 217.678,83.766 216.862 C 83.849 216.045,83.927 215.333,83.941 215.279 C 83.954 215.225,84.042 214.564,84.137 213.810 C 84.231 213.056,84.319 212.395,84.333 212.341 C 84.347 212.287,84.428 211.714,84.515 211.068 C 84.602 210.421,84.699 209.746,84.731 209.567 C 84.763 209.388,84.848 208.815,84.920 208.294 C 85.118 206.856,85.788 203.084,85.918 202.674 C 85.981 202.475,86.060 202.122,86.093 201.890 C 86.207 201.090,86.797 198.532,87.566 195.495 C 87.937 194.032,87.877 194.258,88.513 191.969 C 88.618 191.592,88.893 190.666,89.123 189.912 C 89.353 189.158,89.574 188.408,89.613 188.247 C 89.652 188.085,89.951 187.160,90.276 186.190 C 92.121 180.684,94.059 175.617,95.615 172.224 C 95.926 171.546,96.180 170.936,96.180 170.868 C 96.180 169.640,103.956 155.623,107.845 149.838 C 109.075 148.010,110.175 146.407,110.290 146.274 C 110.405 146.142,111.122 145.196,111.882 144.172 C 119.881 133.399,131.329 122.031,135.651 120.570 C 136.957 120.128,139.209 119.741,140.059 119.812 C 140.436 119.844,141.410 119.908,142.225 119.956 M246.327 358.172 C 247.081 358.223,248.183 358.309,248.776 358.363 C 249.368 358.417,250.558 358.514,251.420 358.579 C 252.282 358.643,253.296 358.741,253.673 358.795 C 254.050 358.850,254.799 358.920,255.338 358.952 C 255.877 358.983,256.714 359.061,257.199 359.125 C 257.684 359.189,258.609 359.294,259.256 359.358 C 260.493 359.482,261.477 359.613,262.292 359.762 C 262.561 359.812,263.134 359.896,263.565 359.950 C 264.539 360.072,266.015 360.281,266.405 360.353 C 266.909 360.444,268.443 360.688,268.854 360.742 C 269.070 360.770,269.466 360.838,269.736 360.894 C 270.005 360.949,270.534 361.040,270.911 361.096 C 271.523 361.188,275.091 361.887,276.102 362.113 C 276.317 362.162,276.802 362.252,277.179 362.315 C 277.556 362.377,277.922 362.464,277.992 362.506 C 278.061 362.549,278.987 362.766,280.048 362.988 C 282.630 363.528,283.086 363.637,284.917 364.146 C 285.779 364.386,286.847 364.658,287.292 364.749 C 287.736 364.841,289.191 365.234,290.524 365.623 C 291.857 366.012,293.124 366.368,293.340 366.414 C 293.555 366.460,293.952 366.579,294.221 366.679 C 294.491 366.778,295.196 367.001,295.788 367.174 C 297.986 367.818,303.624 369.728,303.621 369.828 C 303.611 370.195,297.197 374.278,294.025 375.936 C 290.260 377.905,282.437 381.044,279.726 381.674 C 279.564 381.711,278.914 381.893,278.282 382.077 C 277.649 382.261,277.032 382.433,276.911 382.458 C 276.285 382.590,275.461 382.813,275.024 382.969 C 274.755 383.065,274.314 383.189,274.045 383.244 C 273.776 383.300,273.203 383.426,272.772 383.524 C 270.902 383.951,270.081 384.122,267.679 384.588 C 266.278 384.860,264.776 385.134,264.341 385.198 C 263.906 385.263,263.333 385.359,263.068 385.413 C 262.803 385.466,262.013 385.596,261.312 385.700 C 260.612 385.805,259.863 385.925,259.647 385.968 C 259.143 386.069,256.827 386.365,256.317 386.395 C 256.102 386.407,255.705 386.473,255.436 386.541 C 255.167 386.608,254.417 386.715,253.771 386.778 C 253.124 386.841,252.243 386.930,251.812 386.977 C 250.050 387.168,246.650 387.373,241.724 387.585 C 236.570 387.806,227.007 387.694,223.408 387.370 C 222.870 387.321,221.812 387.233,221.058 387.175 C 220.304 387.116,219.158 387.023,218.511 386.969 C 217.865 386.914,216.631 386.826,215.769 386.772 C 214.907 386.718,214.045 386.625,213.854 386.564 C 213.662 386.504,213.001 386.421,212.384 386.381 C 211.221 386.306,208.883 386.011,208.031 385.832 C 207.762 385.776,207.189 385.681,206.758 385.621 C 206.327 385.562,205.490 385.423,204.897 385.313 C 204.305 385.203,203.555 385.071,203.232 385.019 C 202.110 384.837,200.488 384.501,200.196 384.390 C 200.034 384.328,199.726 384.252,199.510 384.220 C 198.462 384.068,191.659 382.370,190.597 381.995 C 190.328 381.900,189.579 381.668,188.932 381.480 C 187.781 381.144,182.850 379.400,182.076 379.055 C 181.861 378.959,181.332 378.749,180.901 378.588 C 177.037 377.146,170.275 373.328,166.840 370.650 C 165.532 369.629,165.537 369.618,167.483 369.046 C 168.291 368.809,169.878 368.307,171.009 367.932 C 172.140 367.556,173.262 367.212,173.501 367.167 C 173.741 367.122,174.138 367.009,174.383 366.916 C 174.628 366.823,174.873 366.741,174.927 366.735 C 174.980 366.729,175.157 366.684,175.318 366.634 C 175.652 366.532,177.154 366.115,179.726 365.411 C 182.018 364.784,186.054 363.767,186.680 363.659 C 186.949 363.613,187.919 363.400,188.834 363.186 C 192.495 362.329,197.554 361.300,199.021 361.112 C 199.290 361.078,199.995 360.959,200.588 360.848 C 201.180 360.737,202.009 360.596,202.429 360.535 C 202.849 360.474,203.377 360.385,203.604 360.337 C 203.830 360.289,204.456 360.192,204.995 360.122 C 205.534 360.052,206.151 359.968,206.366 359.936 C 206.582 359.904,207.551 359.777,208.521 359.654 C 209.491 359.532,210.548 359.397,210.872 359.356 C 212.594 359.134,213.938 359.003,215.035 358.948 C 215.709 358.914,216.337 358.839,216.430 358.781 C 216.524 358.723,217.524 358.627,218.653 358.568 C 219.782 358.509,221.006 358.422,221.372 358.375 C 221.738 358.328,223.536 358.232,225.367 358.163 C 227.199 358.093,228.735 358.001,228.781 357.958 C 228.888 357.859,244.505 358.049,246.327 358.172 M337.499 385.325 C 338.099 385.641,339.339 386.379,340.255 386.965 C 341.170 387.552,342.869 388.631,344.029 389.364 C 345.189 390.096,347.349 391.469,348.828 392.415 C 354.607 396.110,355.984 396.989,357.061 397.668 C 361.442 400.429,361.072 400.023,360.066 400.961 C 359.650 401.348,358.430 402.484,357.354 403.486 C 356.278 404.488,355.133 405.501,354.808 405.739 C 354.483 405.976,352.949 407.135,351.399 408.313 C 346.065 412.368,341.990 414.603,339.177 415.015 C 338.854 415.063,338.349 415.180,338.056 415.276 C 337.331 415.514,332.361 415.495,331.146 415.250 C 329.474 414.913,326.976 414.218,326.151 413.860 C 325.881 413.743,325.567 413.628,325.451 413.604 C 324.245 413.357,317.425 409.857,314.789 408.133 C 314.412 407.886,312.792 406.832,311.189 405.790 C 309.586 404.748,308.161 403.790,308.022 403.662 C 307.883 403.533,307.277 403.130,306.676 402.766 C 306.075 402.402,305.583 402.028,305.583 401.934 C 305.583 401.840,305.473 401.760,305.338 401.756 C 304.812 401.741,303.896 400.785,304.212 400.582 C 304.663 400.291,309.658 397.402,310.872 396.729 C 311.464 396.400,312.654 395.738,313.516 395.256 C 314.378 394.775,316.405 393.649,318.022 392.755 C 319.638 391.861,321.445 390.846,322.037 390.499 C 323.041 389.910,324.200 389.264,326.347 388.097 C 327.147 387.662,327.889 387.235,329.579 386.234 C 330.882 385.462,332.588 384.744,333.410 384.621 C 333.889 384.550,334.304 384.468,334.334 384.438 C 334.512 384.261,336.578 384.841,337.499 385.325 M138.002 387.368 C 142.654 388.317,148.083 390.449,153.001 393.257 C 153.694 393.652,154.657 394.199,155.142 394.471 C 158.199 396.188,165.782 401.480,165.669 401.817 C 165.600 402.026,148.628 410.646,145.446 412.090 C 137.658 415.621,136.654 415.925,132.713 415.935 C 127.193 415.949,125.928 415.285,116.005 407.163 C 113.495 405.109,111.071 403.135,110.618 402.777 C 109.483 401.879,109.443 402.019,111.586 399.458 C 118.104 391.672,124.344 387.659,130.754 387.134 C 131.508 387.072,132.169 386.979,132.223 386.926 C 132.397 386.759,136.586 387.078,138.002 387.368 M241.038 414.382 C 242.223 414.438,243.810 414.532,244.564 414.591 C 245.318 414.650,246.508 414.741,247.209 414.794 C 247.909 414.847,249.055 414.946,249.755 415.016 C 250.455 415.085,251.381 415.163,251.812 415.188 C 252.243 415.214,252.992 415.293,253.477 415.363 C 253.962 415.434,254.711 415.527,255.142 415.570 C 257.005 415.757,258.144 415.903,259.060 416.070 C 259.598 416.169,260.480 416.302,261.019 416.365 C 261.557 416.429,262.527 416.601,263.173 416.748 C 263.820 416.895,264.701 417.079,265.132 417.158 C 265.563 417.237,266.004 417.323,266.112 417.349 C 266.219 417.376,267.013 417.547,267.875 417.729 C 268.737 417.911,269.574 418.088,269.736 418.122 C 269.897 418.157,270.404 418.280,270.862 418.397 C 271.320 418.514,272.069 418.702,272.527 418.815 C 272.985 418.928,273.932 419.199,274.633 419.417 C 275.333 419.636,276.072 419.849,276.275 419.891 C 276.564 419.951,278.730 420.617,280.020 421.041 C 280.127 421.077,280.260 421.112,280.313 421.119 C 280.478 421.141,283.911 422.337,284.329 422.518 C 284.545 422.612,285.602 423.018,286.680 423.421 C 287.757 423.823,289.192 424.404,289.868 424.711 C 290.544 425.018,291.137 425.269,291.185 425.269 C 291.875 425.269,302.301 430.794,303.778 431.943 C 304.195 432.267,303.913 432.667,303.409 432.466 C 303.345 432.440,303.169 432.520,303.017 432.644 C 302.866 432.768,302.302 433.002,301.763 433.165 C 301.224 433.328,299.594 433.830,298.139 434.282 C 296.685 434.733,295.340 435.133,295.151 435.170 C 294.962 435.207,294.737 435.281,294.651 435.334 C 294.529 435.410,287.989 437.186,286.582 437.526 C 286.420 437.565,285.583 437.772,284.721 437.985 C 282.553 438.522,277.891 439.563,276.592 439.800 C 275.999 439.909,275.162 440.067,274.731 440.153 C 273.607 440.378,269.579 441.091,268.678 441.225 C 268.258 441.288,267.729 441.379,267.503 441.428 C 267.276 441.477,266.738 441.567,266.308 441.628 C 265.877 441.689,265.251 441.783,264.918 441.837 C 264.585 441.890,264.012 441.969,263.645 442.011 C 262.562 442.136,261.244 442.322,260.823 442.408 C 260.607 442.452,259.858 442.541,259.158 442.607 C 258.457 442.673,257.576 442.774,257.199 442.832 C 256.822 442.890,255.966 442.966,255.297 443.001 C 254.629 443.035,253.923 443.112,253.730 443.171 C 253.537 443.231,252.412 443.333,251.230 443.398 C 250.048 443.463,249.024 443.552,248.953 443.596 C 248.166 444.082,221.888 444.072,220.176 443.584 C 220.015 443.538,219.045 443.453,218.022 443.396 C 216.998 443.339,215.940 443.245,215.671 443.187 C 215.402 443.130,214.559 443.050,213.799 443.009 C 213.039 442.968,212.025 442.882,211.546 442.818 C 211.068 442.754,210.235 442.650,209.696 442.586 C 209.158 442.522,208.188 442.398,207.542 442.309 C 206.895 442.221,205.970 442.095,205.485 442.030 C 204.460 441.893,202.276 441.567,201.567 441.446 C 201.298 441.399,200.697 441.313,200.233 441.253 C 199.768 441.193,199.323 441.104,199.242 441.054 C 199.162 441.005,198.705 440.917,198.226 440.860 C 197.747 440.802,196.606 440.615,195.690 440.444 C 194.775 440.274,193.320 440.006,192.458 439.849 C 191.596 439.693,190.539 439.483,190.108 439.384 C 185.313 438.283,183.071 437.743,181.097 437.216 C 180.235 436.985,179.045 436.677,178.452 436.530 C 177.070 436.189,176.454 436.015,173.947 435.260 C 172.816 434.920,171.494 434.526,171.009 434.386 C 168.564 433.677,166.328 432.876,166.131 432.638 C 165.506 431.885,179.438 424.068,183.252 423.032 C 183.359 423.003,183.712 422.870,184.035 422.737 C 185.705 422.051,190.841 420.338,192.948 419.765 C 193.756 419.546,194.858 419.238,195.397 419.082 C 195.935 418.925,196.552 418.762,196.768 418.718 C 196.983 418.674,197.424 418.584,197.747 418.519 C 198.071 418.453,198.599 418.322,198.923 418.227 C 199.508 418.055,200.688 417.824,201.509 417.721 C 201.746 417.691,202.231 417.575,202.586 417.463 C 202.941 417.351,203.585 417.211,204.016 417.151 C 204.447 417.092,205.196 416.958,205.681 416.854 C 206.166 416.751,206.871 416.620,207.248 416.565 C 207.625 416.509,208.947 416.284,210.186 416.065 C 212.887 415.586,214.550 415.343,216.259 415.180 C 216.959 415.113,217.840 415.016,218.217 414.965 C 218.595 414.914,219.520 414.838,220.274 414.797 C 221.028 414.756,222.571 414.671,223.702 414.610 C 224.833 414.548,226.903 414.448,228.300 414.388 C 229.698 414.327,230.869 414.250,230.903 414.217 C 230.985 414.134,238.341 414.254,241.038 414.382 " stroke="none" fill="#3c1c44" fill-rule="evenodd"></path><path id="path1" d="M220.813 0.527 C 221.001 0.576,221.310 0.576,221.499 0.527 C 221.687 0.478,221.533 0.437,221.156 0.437 C 220.779 0.437,220.624 0.478,220.813 0.527 M229.728 26.583 C 229.972 26.630,230.324 26.628,230.512 26.579 C 230.699 26.530,230.500 26.492,230.069 26.494 C 229.638 26.496,229.484 26.536,229.728 26.583 M240.402 26.580 C 240.590 26.629,240.899 26.629,241.087 26.580 C 241.276 26.530,241.121 26.490,240.744 26.490 C 240.367 26.490,240.213 26.530,240.402 26.580 M132.079 55.772 C 132.377 55.817,132.818 55.816,133.059 55.770 C 133.299 55.723,133.056 55.686,132.517 55.688 C 131.978 55.689,131.781 55.727,132.079 55.772 M388.834 59.256 C 389.200 59.633,389.543 59.941,389.597 59.941 C 389.651 59.941,389.396 59.633,389.030 59.256 C 388.665 58.879,388.322 58.570,388.268 58.570 C 388.214 58.570,388.469 58.879,388.834 59.256 M395.486 65.475 C 395.967 65.987,396.385 66.405,396.417 66.405 C 396.564 66.405,396.408 66.230,395.544 65.418 L 394.613 64.545 395.486 65.475 M71.303 66.308 C 70.827 66.792,70.482 67.189,70.535 67.189 C 70.589 67.189,71.023 66.792,71.499 66.308 C 71.974 65.823,72.320 65.426,72.266 65.426 C 72.212 65.426,71.778 65.823,71.303 66.308 M399.129 70.507 L 398.357 71.401 399.218 70.575 C 399.691 70.121,400.039 69.718,399.990 69.681 C 399.942 69.643,399.554 70.015,399.129 70.507 M63.752 73.898 L 62.977 74.731 63.810 73.956 C 64.584 73.236,64.733 73.066,64.584 73.066 C 64.552 73.066,64.178 73.440,63.752 73.898 M393.525 75.955 L 392.850 76.690 393.585 76.014 C 393.989 75.643,394.319 75.313,394.319 75.280 C 394.319 75.130,394.154 75.271,393.525 75.955 M60.910 76.934 L 60.235 77.669 60.970 76.994 C 61.374 76.623,61.704 76.292,61.704 76.259 C 61.704 76.110,61.538 76.251,60.910 76.934 M230.313 82.998 C 230.556 83.045,230.952 83.045,231.195 82.998 C 231.437 82.951,231.239 82.913,230.754 82.913 C 230.269 82.913,230.071 82.951,230.313 82.998 M242.556 82.995 C 242.745 83.044,243.053 83.044,243.242 82.995 C 243.430 82.946,243.276 82.905,242.899 82.905 C 242.522 82.905,242.368 82.946,242.556 82.995 M334.231 83.583 C 334.420 83.632,334.728 83.632,334.917 83.583 C 335.105 83.533,334.951 83.493,334.574 83.493 C 334.197 83.493,334.043 83.533,334.231 83.583 M88.883 88.875 C 89.126 88.921,89.523 88.921,89.765 88.875 C 90.007 88.828,89.809 88.790,89.324 88.790 C 88.839 88.790,88.641 88.828,88.883 88.875 M108.215 108.570 L 107.640 109.207 108.276 108.631 C 108.626 108.315,108.913 108.028,108.913 107.995 C 108.913 107.843,108.751 107.977,108.215 108.570 M254.114 111.203 C 254.302 111.252,254.611 111.252,254.799 111.203 C 254.988 111.153,254.833 111.113,254.456 111.113 C 254.079 111.113,253.925 111.153,254.114 111.203 M226.690 111.986 C 226.878 112.035,227.187 112.035,227.375 111.986 C 227.564 111.937,227.409 111.897,227.032 111.897 C 226.655 111.897,226.501 111.937,226.690 111.986 M229.729 111.993 C 230.081 112.037,230.610 112.036,230.905 111.991 C 231.199 111.946,230.911 111.911,230.264 111.912 C 229.618 111.913,229.377 111.949,229.729 111.993 M241.087 111.989 C 241.330 112.036,241.726 112.036,241.969 111.989 C 242.211 111.943,242.013 111.904,241.528 111.904 C 241.043 111.904,240.845 111.943,241.087 111.989 M126.243 127.963 L 125.073 129.187 126.298 128.018 C 126.971 127.375,127.522 126.824,127.522 126.794 C 127.522 126.649,127.329 126.826,126.243 127.963 M122.429 131.734 C 121.953 132.218,121.608 132.615,121.662 132.615 C 121.716 132.615,122.149 132.218,122.625 131.734 C 123.101 131.249,123.446 130.852,123.392 130.852 C 123.338 130.852,122.905 131.249,122.429 131.734 M148.279 147.062 L 147.209 148.188 148.335 147.117 C 149.381 146.123,149.551 145.935,149.406 145.935 C 149.375 145.935,148.868 146.442,148.279 147.062 M167.276 165.867 L 166.601 166.601 167.336 165.926 C 168.020 165.298,168.161 165.132,168.011 165.132 C 167.978 165.132,167.648 165.463,167.276 165.867 M164.534 168.609 L 163.859 169.344 164.594 168.669 C 165.277 168.040,165.418 167.875,165.269 167.875 C 165.236 167.875,164.905 168.205,164.534 168.609 M27.473 214.594 C 27.476 215.024,27.516 215.178,27.563 214.934 C 27.609 214.690,27.608 214.338,27.559 214.151 C 27.510 213.963,27.471 214.163,27.473 214.594 M56.265 229.187 C 56.265 229.564,56.305 229.718,56.354 229.530 C 56.404 229.341,56.404 229.033,56.354 228.844 C 56.305 228.656,56.265 228.810,56.265 229.187 M56.269 231.048 C 56.271 231.479,56.311 231.632,56.358 231.389 C 56.405 231.145,56.403 230.792,56.354 230.605 C 56.305 230.418,56.267 230.617,56.269 231.048 M82.723 231.342 C 82.723 231.934,82.759 232.177,82.804 231.881 C 82.849 231.584,82.849 231.099,82.804 230.803 C 82.759 230.507,82.723 230.749,82.723 231.342 M26.509 232.027 C 26.510 232.782,26.545 233.066,26.588 232.660 C 26.630 232.253,26.629 231.636,26.586 231.288 C 26.543 230.941,26.508 231.273,26.509 232.027 M112.296 231.929 C 112.296 232.414,112.334 232.613,112.381 232.370 C 112.428 232.128,112.428 231.731,112.381 231.489 C 112.334 231.246,112.296 231.445,112.296 231.929 M137.967 233.497 C 137.967 234.197,138.002 234.483,138.046 234.133 C 138.089 233.783,138.089 233.210,138.046 232.860 C 138.002 232.510,137.967 232.796,137.967 233.497 M82.725 236.729 C 82.726 237.375,82.762 237.616,82.806 237.264 C 82.850 236.912,82.849 236.383,82.804 236.089 C 82.759 235.794,82.724 236.082,82.725 236.729 M112.299 237.120 C 112.300 237.659,112.338 237.856,112.383 237.559 C 112.428 237.261,112.427 236.820,112.381 236.579 C 112.334 236.338,112.297 236.582,112.299 237.120 M26.694 239.961 C 26.694 240.446,26.732 240.644,26.779 240.402 C 26.825 240.159,26.825 239.762,26.779 239.520 C 26.732 239.278,26.694 239.476,26.694 239.961 M56.265 241.724 C 56.265 242.101,56.305 242.255,56.354 242.067 C 56.404 241.878,56.404 241.570,56.354 241.381 C 56.305 241.192,56.265 241.347,56.265 241.724 M26.686 242.311 C 26.686 242.689,26.726 242.843,26.776 242.654 C 26.825 242.466,26.825 242.157,26.776 241.969 C 26.726 241.780,26.686 241.934,26.686 242.311 M145.152 319.552 C 145.152 319.586,145.438 319.872,145.788 320.189 L 146.425 320.764 145.850 320.127 C 145.313 319.534,145.152 319.401,145.152 319.552 M121.156 337.904 C 121.577 338.335,121.965 338.688,122.019 338.688 C 122.073 338.688,121.772 338.335,121.352 337.904 C 120.931 337.473,120.542 337.120,120.489 337.120 C 120.435 337.120,120.735 337.473,121.156 337.904 M125.857 342.605 C 126.278 343.036,126.666 343.389,126.720 343.389 C 126.774 343.389,126.474 343.036,126.053 342.605 C 125.632 342.174,125.244 341.822,125.190 341.822 C 125.136 341.822,125.436 342.174,125.857 342.605 M104.016 356.379 C 104.016 356.412,104.302 356.699,104.652 357.015 L 105.289 357.591 104.714 356.954 C 104.177 356.361,104.016 356.227,104.016 356.379 M231.587 358.019 C 231.775 358.069,232.084 358.069,232.272 358.019 C 232.461 357.970,232.307 357.930,231.929 357.930 C 231.552 357.930,231.398 357.970,231.587 358.019 M132.860 387.016 C 133.156 387.061,133.641 387.061,133.937 387.016 C 134.234 386.971,133.991 386.934,133.399 386.934 C 132.806 386.934,132.564 386.971,132.860 387.016 M64.251 396.144 C 64.251 396.177,64.537 396.464,64.887 396.780 L 65.524 397.356 64.949 396.719 C 64.412 396.125,64.251 395.992,64.251 396.144 M113.896 396.915 L 113.320 397.551 113.957 396.976 C 114.307 396.660,114.594 396.373,114.594 396.339 C 114.594 396.188,114.432 396.321,113.896 396.915 M398.237 399.314 C 398.603 399.691,398.946 400.000,398.999 400.000 C 399.053 400.000,398.798 399.691,398.433 399.314 C 398.067 398.937,397.724 398.629,397.670 398.629 C 397.617 398.629,397.872 398.937,398.237 399.314 M75.024 406.954 C 75.610 407.547,76.133 408.031,76.186 408.031 C 76.240 408.031,75.806 407.547,75.220 406.954 C 74.635 406.361,74.112 405.877,74.058 405.877 C 74.005 405.877,74.439 406.361,75.024 406.954 " stroke="none" fill="#341437" fill-rule="evenodd"></path><path id="path2" d="M242.556 0.331 C 242.745 0.380,243.053 0.380,243.242 0.331 C 243.430 0.282,243.276 0.241,242.899 0.241 C 242.522 0.241,242.368 0.282,242.556 0.331 M233.937 26.590 C 234.772 26.627,236.139 26.627,236.974 26.590 C 237.809 26.554,237.125 26.524,235.455 26.524 C 233.786 26.524,233.102 26.554,233.937 26.590 M116.552 63.173 C 116.077 63.658,115.731 64.055,115.785 64.055 C 115.839 64.055,116.272 63.658,116.748 63.173 C 117.224 62.689,117.569 62.292,117.515 62.292 C 117.462 62.292,117.028 62.689,116.552 63.173 M393.242 63.271 C 393.773 63.810,394.251 64.251,394.305 64.251 C 394.358 64.251,393.968 63.810,393.438 63.271 C 392.907 62.733,392.429 62.292,392.375 62.292 C 392.321 62.292,392.711 62.733,393.242 63.271 M70.409 67.042 L 69.833 67.679 70.470 67.103 C 70.820 66.787,71.107 66.500,71.107 66.467 C 71.107 66.315,70.945 66.449,70.409 67.042 M66.295 71.156 L 65.720 71.792 66.357 71.217 C 66.707 70.901,66.993 70.614,66.993 70.580 C 66.993 70.429,66.832 70.562,66.295 71.156 M64.336 73.115 L 63.761 73.751 64.398 73.176 C 64.991 72.640,65.124 72.478,64.973 72.478 C 64.939 72.478,64.653 72.764,64.336 73.115 M395.685 73.996 L 394.417 75.318 395.739 74.051 C 396.467 73.354,397.062 72.759,397.062 72.728 C 397.062 72.584,396.862 72.768,395.685 73.996 M235.123 83.006 C 236.179 83.041,237.854 83.041,238.845 83.006 C 239.836 82.970,238.972 82.941,236.925 82.942 C 234.878 82.942,234.067 82.971,235.123 83.006 M110.370 106.024 L 109.794 106.660 110.431 106.085 C 110.781 105.768,111.068 105.482,111.068 105.448 C 111.068 105.297,110.906 105.430,110.370 106.024 M235.211 111.996 C 235.776 112.035,236.702 112.035,237.267 111.996 C 237.833 111.956,237.370 111.924,236.239 111.924 C 235.108 111.924,234.645 111.956,235.211 111.996 M168.548 164.789 L 167.973 165.426 168.609 164.851 C 168.959 164.534,169.246 164.248,169.246 164.214 C 169.246 164.063,169.084 164.196,168.548 164.789 M26.694 227.424 C 26.694 227.909,26.732 228.107,26.779 227.865 C 26.825 227.622,26.825 227.226,26.779 226.983 C 26.732 226.741,26.694 226.939,26.694 227.424 M82.905 228.599 C 82.905 228.976,82.946 229.131,82.995 228.942 C 83.044 228.754,83.044 228.445,82.995 228.257 C 82.946 228.068,82.905 228.222,82.905 228.599 M138.149 230.460 C 138.151 230.891,138.192 231.045,138.238 230.801 C 138.285 230.557,138.284 230.205,138.234 230.017 C 138.185 229.830,138.147 230.029,138.149 230.460 M26.699 237.023 C 26.699 237.615,26.736 237.857,26.781 237.561 C 26.826 237.265,26.826 236.780,26.781 236.484 C 26.736 236.188,26.699 236.430,26.699 237.023 M138.145 236.631 C 138.145 237.008,138.186 237.162,138.235 236.974 C 138.284 236.785,138.284 236.476,138.235 236.288 C 138.186 236.099,138.145 236.254,138.145 236.631 M82.905 239.569 C 82.905 239.946,82.946 240.100,82.995 239.912 C 83.044 239.723,83.044 239.415,82.995 239.226 C 82.946 239.038,82.905 239.192,82.905 239.569 M165.720 303.881 C 165.720 303.915,166.006 304.201,166.357 304.518 L 166.993 305.093 166.418 304.456 C 165.882 303.863,165.720 303.730,165.720 303.881 M148.678 323.310 C 150.237 324.873,151.557 326.151,151.611 326.151 C 151.665 326.151,150.433 324.873,148.874 323.310 C 147.314 321.748,145.994 320.470,145.940 320.470 C 145.887 320.470,147.118 321.748,148.678 323.310 M120.470 336.986 C 120.470 337.020,120.757 337.306,121.107 337.623 L 121.743 338.198 121.168 337.561 C 120.632 336.968,120.470 336.835,120.470 336.986 M65.230 397.319 C 65.230 397.353,65.517 397.639,65.867 397.956 L 66.503 398.531 65.928 397.894 C 65.392 397.301,65.230 397.168,65.230 397.319 M398.323 402.008 L 397.747 402.644 398.384 402.069 C 398.734 401.753,399.021 401.466,399.021 401.432 C 399.021 401.281,398.859 401.414,398.323 402.008 M72.968 405.093 C 73.498 405.632,73.976 406.072,74.030 406.072 C 74.084 406.072,73.694 405.632,73.164 405.093 C 72.633 404.554,72.155 404.114,72.101 404.114 C 72.047 404.114,72.437 404.554,72.968 405.093 " stroke="none" fill="#24112c" fill-rule="evenodd"></path><path id="path3" d="M232.961 111.992 C 233.258 112.037,233.699 112.036,233.940 111.989 C 234.181 111.943,233.937 111.906,233.399 111.907 C 232.860 111.909,232.663 111.947,232.961 111.992 M238.541 111.989 C 238.783 112.036,239.180 112.036,239.422 111.989 C 239.665 111.943,239.466 111.904,238.981 111.904 C 238.497 111.904,238.298 111.943,238.541 111.989 M124.473 129.726 L 123.898 130.362 124.535 129.787 C 124.885 129.471,125.171 129.184,125.171 129.150 C 125.171 128.999,125.010 129.132,124.473 129.726 " stroke="none" fill="#2c142c" fill-rule="evenodd"></path><path id="path4" d="M224.339 0.527 C 224.527 0.576,224.836 0.576,225.024 0.527 C 225.213 0.478,225.059 0.437,224.682 0.437 C 224.305 0.437,224.150 0.478,224.339 0.527 M244.123 0.527 C 244.312 0.576,244.620 0.576,244.809 0.527 C 244.998 0.478,244.843 0.437,244.466 0.437 C 244.089 0.437,243.935 0.478,244.123 0.527 M249.804 0.919 C 249.993 0.968,250.301 0.968,250.490 0.919 C 250.678 0.869,250.524 0.829,250.147 0.829 C 249.770 0.829,249.616 0.869,249.804 0.919 M211.315 1.314 C 211.558 1.361,211.911 1.359,212.098 1.310 C 212.286 1.261,212.086 1.223,211.655 1.225 C 211.224 1.227,211.071 1.267,211.315 1.314 M254.701 1.310 C 254.890 1.360,255.198 1.360,255.387 1.310 C 255.575 1.261,255.421 1.221,255.044 1.221 C 254.667 1.221,254.513 1.261,254.701 1.310 M208.080 1.702 C 208.269 1.751,208.577 1.751,208.766 1.702 C 208.954 1.653,208.800 1.613,208.423 1.613 C 208.046 1.613,207.892 1.653,208.080 1.702 M166.405 38.181 C 166.786 38.619,167.875 39.470,167.875 39.330 C 167.875 39.292,167.456 38.916,166.944 38.496 C 166.432 38.075,166.190 37.934,166.405 38.181 M129.922 55.767 C 130.110 55.816,130.419 55.816,130.607 55.767 C 130.796 55.717,130.642 55.677,130.264 55.677 C 129.887 55.677,129.733 55.717,129.922 55.767 M235.113 55.767 C 235.301 55.816,235.610 55.816,235.798 55.767 C 235.987 55.717,235.833 55.677,235.455 55.677 C 235.078 55.677,234.924 55.717,235.113 55.767 M238.051 55.767 C 238.239 55.816,238.548 55.816,238.737 55.767 C 238.925 55.717,238.771 55.677,238.394 55.677 C 238.017 55.677,237.862 55.717,238.051 55.767 M387.455 58.031 C 388.267 58.896,388.443 59.052,388.443 58.905 C 388.443 58.873,388.024 58.454,387.512 57.974 L 386.582 57.101 387.455 58.031 M390.597 61.019 C 390.963 61.396,391.306 61.704,391.360 61.704 C 391.414 61.704,391.159 61.396,390.793 61.019 C 390.428 60.642,390.085 60.333,390.031 60.333 C 389.977 60.333,390.232 60.642,390.597 61.019 M117.325 62.243 L 116.650 62.977 117.385 62.302 C 118.069 61.674,118.210 61.508,118.060 61.508 C 118.027 61.508,117.697 61.839,117.325 62.243 M75.406 62.635 L 74.731 63.369 75.465 62.694 C 75.869 62.323,76.200 61.992,76.200 61.960 C 76.200 61.810,76.034 61.951,75.406 62.635 M393.634 63.859 C 394.273 64.505,394.841 65.034,394.895 65.034 C 394.949 65.034,394.469 64.505,393.830 63.859 C 393.190 63.213,392.622 62.684,392.569 62.684 C 392.515 62.684,392.994 63.213,393.634 63.859 M73.251 64.594 L 72.576 65.328 73.310 64.653 C 73.994 64.025,74.135 63.859,73.986 63.859 C 73.953 63.859,73.622 64.190,73.251 64.594 M114.789 64.740 C 114.314 65.225,113.968 65.622,114.022 65.622 C 114.076 65.622,114.509 65.225,114.985 64.740 C 115.461 64.256,115.806 63.859,115.752 63.859 C 115.699 63.859,115.265 64.256,114.789 64.740 M397.258 67.250 C 397.258 67.284,397.544 67.571,397.894 67.887 L 398.531 68.462 397.956 67.826 C 397.419 67.232,397.258 67.099,397.258 67.250 M359.912 68.302 C 359.986 68.376,359.758 68.751,359.406 69.135 L 358.766 69.833 359.493 69.166 C 360.124 68.587,360.293 68.168,359.897 68.168 C 359.832 68.168,359.838 68.229,359.912 68.302 M67.280 70.372 L 66.308 71.401 67.336 70.429 C 67.902 69.894,68.364 69.431,68.364 69.400 C 68.364 69.254,68.183 69.417,67.280 70.372 M396.274 73.213 L 394.613 74.927 396.327 73.266 C 397.919 71.723,398.130 71.499,397.988 71.499 C 397.959 71.499,397.187 72.270,396.274 73.213 M62.182 75.661 L 61.606 76.298 62.243 75.722 C 62.593 75.406,62.880 75.119,62.880 75.086 C 62.880 74.934,62.718 75.068,62.182 75.661 M59.931 78.110 L 59.256 78.844 59.990 78.169 C 60.394 77.798,60.725 77.467,60.725 77.435 C 60.725 77.285,60.559 77.426,59.931 78.110 M390.882 78.404 L 390.108 79.236 390.940 78.462 C 391.398 78.036,391.773 77.661,391.773 77.629 C 391.773 77.481,391.602 77.629,390.882 78.404 M226.102 82.995 C 226.290 83.044,226.599 83.044,226.787 82.995 C 226.976 82.946,226.822 82.905,226.445 82.905 C 226.068 82.905,225.913 82.946,226.102 82.995 M227.767 82.998 C 228.009 83.045,228.406 83.045,228.648 82.998 C 228.891 82.951,228.692 82.913,228.208 82.913 C 227.723 82.913,227.524 82.951,227.767 82.998 M54.346 84.476 L 53.771 85.113 54.407 84.537 C 55.001 84.001,55.134 83.839,54.983 83.839 C 54.949 83.839,54.663 84.126,54.346 84.476 M107.627 109.354 L 107.052 109.990 107.689 109.415 C 108.039 109.098,108.325 108.812,108.325 108.778 C 108.325 108.627,108.164 108.760,107.627 109.354 M261.070 110.618 C 261.314 110.665,261.666 110.664,261.853 110.615 C 262.041 110.565,261.841 110.527,261.410 110.529 C 260.979 110.531,260.826 110.572,261.070 110.618 M224.439 111.990 C 224.683 112.037,225.035 112.035,225.223 111.986 C 225.410 111.937,225.211 111.898,224.780 111.901 C 224.349 111.903,224.195 111.943,224.439 111.990 M231.587 111.986 C 231.775 112.035,232.084 112.035,232.272 111.986 C 232.461 111.937,232.307 111.897,231.929 111.897 C 231.552 111.897,231.398 111.937,231.587 111.986 M245.299 111.986 C 245.487 112.035,245.796 112.035,245.984 111.986 C 246.173 111.937,246.019 111.897,245.642 111.897 C 245.264 111.897,245.110 111.937,245.299 111.986 M104.101 113.271 L 103.526 113.908 104.163 113.333 C 104.513 113.016,104.799 112.730,104.799 112.696 C 104.799 112.545,104.638 112.678,104.101 113.271 M118.793 135.602 L 118.217 136.239 118.854 135.664 C 119.204 135.347,119.491 135.061,119.491 135.027 C 119.491 134.876,119.329 135.009,118.793 135.602 M153.956 141.773 L 153.281 142.507 154.016 141.832 C 154.699 141.204,154.840 141.038,154.691 141.038 C 154.658 141.038,154.327 141.369,153.956 141.773 M82.377 141.937 C 82.194 142.215,82.079 142.477,82.120 142.518 C 82.161 142.560,82.350 142.332,82.539 142.012 C 82.961 141.297,82.835 141.238,82.377 141.937 M151.313 144.221 L 150.539 145.054 151.371 144.280 C 152.145 143.559,152.294 143.389,152.146 143.389 C 152.114 143.389,151.739 143.763,151.313 144.221 M145.729 149.804 L 145.054 150.539 145.788 149.864 C 146.192 149.492,146.523 149.162,146.523 149.129 C 146.523 148.979,146.357 149.120,145.729 149.804 M168.648 164.496 L 167.973 165.230 168.707 164.555 C 169.111 164.184,169.442 163.853,169.442 163.821 C 169.442 163.671,169.276 163.812,168.648 164.496 M163.259 169.882 L 162.684 170.519 163.320 169.944 C 163.914 169.407,164.047 169.246,163.896 169.246 C 163.862 169.246,163.575 169.532,163.259 169.882 M113.268 218.217 C 113.268 218.595,113.308 218.749,113.357 218.560 C 113.407 218.372,113.407 218.063,113.357 217.875 C 113.308 217.686,113.268 217.840,113.268 218.217 M0.437 220.764 C 0.437 221.141,0.478 221.295,0.527 221.107 C 0.576 220.918,0.576 220.610,0.527 220.421 C 0.478 220.233,0.437 220.387,0.437 220.764 M112.484 228.012 C 112.484 228.389,112.525 228.543,112.574 228.355 C 112.623 228.166,112.623 227.857,112.574 227.669 C 112.525 227.480,112.484 227.635,112.484 228.012 M26.501 229.873 C 26.502 230.411,26.540 230.608,26.585 230.311 C 26.630 230.013,26.629 229.572,26.583 229.331 C 26.536 229.090,26.499 229.334,26.501 229.873 M56.282 233.497 C 56.282 234.197,56.318 234.483,56.361 234.133 C 56.405 233.783,56.405 233.210,56.361 232.860 C 56.318 232.510,56.282 232.796,56.282 233.497 M112.314 234.476 C 112.314 235.500,112.347 235.918,112.387 235.406 C 112.427 234.895,112.427 234.057,112.387 233.546 C 112.347 233.034,112.314 233.452,112.314 234.476 M26.501 234.182 C 26.502 234.721,26.540 234.918,26.585 234.620 C 26.630 234.322,26.629 233.882,26.583 233.641 C 26.536 233.400,26.499 233.643,26.501 234.182 M56.282 239.569 C 56.282 240.269,56.318 240.556,56.361 240.206 C 56.405 239.856,56.405 239.283,56.361 238.932 C 56.318 238.582,56.282 238.869,56.282 239.569 M26.694 244.858 C 26.694 245.343,26.732 245.541,26.779 245.299 C 26.825 245.056,26.825 244.660,26.779 244.417 C 26.732 244.175,26.694 244.373,26.694 244.858 M83.497 252.983 C 83.497 253.258,83.561 253.524,83.640 253.573 C 83.720 253.622,83.760 253.436,83.729 253.160 C 83.655 252.482,83.497 252.361,83.497 252.983 M57.440 256.611 C 57.440 256.988,57.480 257.143,57.530 256.954 C 57.579 256.765,57.579 256.457,57.530 256.268 C 57.480 256.080,57.440 256.234,57.440 256.611 M28.057 261.312 C 28.057 261.690,28.098 261.844,28.147 261.655 C 28.196 261.467,28.196 261.158,28.147 260.970 C 28.098 260.781,28.057 260.935,28.057 261.312 M144.368 318.609 C 144.734 318.986,145.077 319.295,145.131 319.295 C 145.185 319.295,144.930 318.986,144.564 318.609 C 144.199 318.232,143.856 317.924,143.802 317.924 C 143.748 317.924,144.003 318.232,144.368 318.609 M148.678 323.115 C 150.021 324.461,151.165 325.563,151.218 325.563 C 151.272 325.563,150.217 324.461,148.874 323.115 C 147.530 321.768,146.387 320.666,146.333 320.666 C 146.279 320.666,147.334 321.768,148.678 323.115 M152.008 326.445 C 152.373 326.822,152.716 327.130,152.770 327.130 C 152.824 327.130,152.569 326.822,152.204 326.445 C 151.838 326.068,151.495 325.759,151.441 325.759 C 151.387 325.759,151.642 326.068,152.008 326.445 M82.084 327.620 C 82.084 327.728,82.265 328.036,82.486 328.306 C 82.752 328.631,82.818 328.664,82.684 328.404 C 82.354 327.765,82.082 327.410,82.084 327.620 M153.575 327.779 C 153.575 327.813,153.861 328.099,154.212 328.416 L 154.848 328.991 154.273 328.355 C 153.737 327.761,153.575 327.628,153.575 327.779 M226.298 331.575 C 226.486 331.624,226.795 331.624,226.983 331.575 C 227.172 331.526,227.018 331.485,226.641 331.485 C 226.263 331.485,226.109 331.526,226.298 331.575 M232.862 331.970 C 233.106 332.017,233.458 332.015,233.646 331.966 C 233.833 331.917,233.634 331.879,233.203 331.881 C 232.772 331.883,232.619 331.923,232.862 331.970 M243.928 332.358 C 244.116 332.408,244.425 332.408,244.613 332.358 C 244.802 332.309,244.647 332.269,244.270 332.269 C 243.893 332.269,243.739 332.309,243.928 332.358 M86.361 334.280 C 86.467 334.496,86.697 334.848,86.872 335.064 L 87.191 335.455 86.999 335.064 C 86.893 334.848,86.663 334.496,86.487 334.280 L 86.168 333.888 86.361 334.280 M119.295 336.006 C 119.295 336.040,119.581 336.327,119.931 336.643 L 120.568 337.218 119.993 336.582 C 119.456 335.988,119.295 335.855,119.295 336.006 M127.424 344.172 C 127.845 344.603,128.233 344.956,128.287 344.956 C 128.341 344.956,128.041 344.603,127.620 344.172 C 127.199 343.741,126.811 343.389,126.757 343.389 C 126.703 343.389,127.003 343.741,127.424 344.172 M99.314 351.090 C 99.314 351.123,99.601 351.410,99.951 351.726 L 100.588 352.302 100.012 351.665 C 99.476 351.072,99.314 350.938,99.314 351.090 M61.287 351.518 C 61.393 351.734,61.623 352.086,61.799 352.302 L 62.118 352.693 61.925 352.302 C 61.819 352.086,61.589 351.734,61.414 351.518 L 61.095 351.126 61.287 351.518 M103.134 355.338 C 103.555 355.769,103.943 356.121,103.997 356.121 C 104.051 356.121,103.751 355.769,103.330 355.338 C 102.909 354.907,102.521 354.554,102.467 354.554 C 102.413 354.554,102.713 354.907,103.134 355.338 M225.810 358.219 C 226.054 358.266,226.407 358.264,226.594 358.215 C 226.781 358.166,226.582 358.128,226.151 358.130 C 225.720 358.132,225.567 358.172,225.810 358.219 M243.930 358.221 C 244.228 358.266,244.669 358.265,244.910 358.218 C 245.151 358.172,244.907 358.135,244.368 358.136 C 243.830 358.138,243.632 358.176,243.930 358.221 M108.121 360.676 C 108.933 361.541,109.109 361.696,109.109 361.549 C 109.109 361.518,108.690 361.099,108.178 360.619 L 107.248 359.745 108.121 360.676 M109.696 362.451 C 109.696 362.485,109.983 362.771,110.333 363.088 L 110.970 363.663 110.394 363.026 C 109.858 362.433,109.696 362.300,109.696 362.451 M112.456 365.449 C 112.716 365.785,112.968 366.025,113.016 365.982 C 113.064 365.939,112.851 365.664,112.543 365.371 L 111.983 364.838 112.456 365.449 M77.179 372.050 C 77.179 372.083,77.466 372.370,77.816 372.686 L 78.452 373.262 77.877 372.625 C 77.341 372.031,77.179 371.898,77.179 372.050 M208.964 386.035 C 209.208 386.082,209.560 386.080,209.748 386.031 C 209.935 385.982,209.736 385.943,209.305 385.946 C 208.874 385.948,208.720 385.988,208.964 386.035 M389.226 391.087 C 389.592 391.464,389.935 391.773,389.989 391.773 C 390.043 391.773,389.788 391.464,389.422 391.087 C 389.057 390.710,388.714 390.402,388.660 390.402 C 388.606 390.402,388.861 390.710,389.226 391.087 M119.785 391.496 L 119.197 392.001 119.833 391.580 C 120.184 391.348,120.470 391.120,120.470 391.074 C 120.470 390.927,120.387 390.978,119.785 391.496 M63.075 394.809 C 63.441 395.186,63.784 395.495,63.838 395.495 C 63.892 395.495,63.637 395.186,63.271 394.809 C 62.906 394.432,62.563 394.123,62.509 394.123 C 62.455 394.123,62.710 394.432,63.075 394.809 M115.272 395.348 L 114.300 396.376 115.328 395.404 C 116.284 394.501,116.446 394.319,116.300 394.319 C 116.269 394.319,115.806 394.782,115.272 395.348 M66.405 398.335 C 66.991 398.928,67.514 399.412,67.567 399.412 C 67.621 399.412,67.187 398.928,66.601 398.335 C 66.016 397.742,65.493 397.258,65.439 397.258 C 65.386 397.258,65.820 397.742,66.405 398.335 M397.156 402.987 L 395.005 405.191 397.209 403.040 C 399.256 401.041,399.501 400.784,399.360 400.784 C 399.331 400.784,398.340 401.775,397.156 402.987 M72.968 404.897 C 73.498 405.436,73.976 405.877,74.030 405.877 C 74.084 405.877,73.694 405.436,73.164 404.897 C 72.633 404.358,72.155 403.918,72.101 403.918 C 72.047 403.918,72.437 404.358,72.968 404.897 M76.200 407.933 C 76.565 408.310,76.908 408.619,76.962 408.619 C 77.016 408.619,76.761 408.310,76.396 407.933 C 76.030 407.556,75.687 407.248,75.633 407.248 C 75.579 407.248,75.834 407.556,76.200 407.933 M79.922 411.227 C 79.922 411.261,80.208 411.547,80.558 411.863 L 81.195 412.439 80.620 411.802 C 80.083 411.209,79.922 411.075,79.922 411.227 M233.835 414.245 C 234.183 414.288,234.800 414.289,235.206 414.247 C 235.613 414.204,235.328 414.169,234.574 414.168 C 233.820 414.167,233.487 414.202,233.835 414.245 M221.401 414.827 C 221.589 414.876,221.898 414.876,222.086 414.827 C 222.275 414.777,222.120 414.737,221.743 414.737 C 221.366 414.737,221.212 414.777,221.401 414.827 M335.994 415.414 C 336.183 415.463,336.491 415.463,336.680 415.414 C 336.868 415.365,336.714 415.325,336.337 415.325 C 335.960 415.325,335.806 415.365,335.994 415.414 M244.025 443.821 C 244.268 443.868,244.665 443.868,244.907 443.821 C 245.149 443.774,244.951 443.736,244.466 443.736 C 243.981 443.736,243.783 443.774,244.025 443.821 M240.989 470.066 C 241.178 470.116,241.486 470.116,241.675 470.066 C 241.863 470.017,241.709 469.977,241.332 469.977 C 240.955 469.977,240.801 470.017,240.989 470.066 " stroke="none" fill="#371c3c" fill-rule="evenodd"></path></g></svg>